<?xml version="1.0" encoding="utf-8"?>
<!-- Generator: Adobe Illustrator 18.0.0, SVG Export Plug-In . SVG Version: 6.00 Build 0)  -->
<!DOCTYPE svg PUBLIC "-//W3C//DTD SVG 1.1//EN" "http://www.w3.org/Graphics/SVG/1.1/DTD/svg11.dtd">
<svg version="1.1" id="Calque_1" xmlns="http://www.w3.org/2000/svg" xmlns:xlink="http://www.w3.org/1999/xlink" x="0px" y="0px"
	 viewBox="-296.5 357.5 16 9.6" enable-background="new -296.5 357.5 16 9.6" xml:space="preserve">
<g>
	<path fill="#CD142B" d="M-289.5,357.5c0.6,0,1.3,0,1.9,0c0,0,0,0,0,0c0,0,0,0,0,0.1c0,1.2,0,2.4,0,3.6c0,0.1,0,0.1,0.1,0.1
		c2.3,0,4.6,0,6.8,0c0,0,0.1,0,0.1,0c0,0.6,0,1.3,0,1.9c0,0,0,0,0,0c0,0,0,0-0.1,0c-2.3,0-4.5,0-6.8,0c-0.1,0-0.1,0-0.1,0.1
		c0,1.2,0,2.4,0,3.6c0,0,0,0.1,0,0.1c-0.6,0-1.3,0-1.9,0c0,0,0,0,0,0c0,0,0,0,0-0.1c0-1.2,0-2.4,0-3.6c0-0.1,0-0.1-0.1-0.1
		c-2.3,0-4.6,0-6.8,0c0,0-0.1,0-0.1,0c0-0.6,0-1.3,0-1.9c0,0,0,0,0,0c0,0,0,0,0.1,0c2.3,0,4.5,0,6.8,0c0.1,0,0.1,0,0.1-0.1
		C-289.5,360-289.5,358.8-289.5,357.5C-289.5,357.6-289.5,357.6-289.5,357.5z"/>
	<path fill="#FEFEFE" d="M-289.5,357.5c0,1.3,0,2.5,0,3.8c0,0,0,0,0,0c-2.3,0-4.7,0-7,0c0-0.2,0-0.4,0-0.6c0,0,0,0,0,0c0,0,0,0,0,0
		c1.1,0,2.2,0,3.3,0c0,0,0,0,0.1,0c0,0-0.1-0.1-0.1-0.1c-1.1-0.6-2.1-1.3-3.2-1.9c0,0-0.1,0-0.1-0.1c0-0.4,0-0.7,0-1.1c0,0,0,0,0,0
		c0.6,0,1.2,0,1.8,0c0,0,0.1,0,0.1,0.1c1.4,0.8,2.8,1.7,4.1,2.5c0.1,0,0.1,0.1,0.2,0.1c0,0,0,0,0,0c0,0,0,0,0,0c0-0.9,0-1.7,0-2.6
		c0,0,0-0.1,0-0.1C-289.9,357.5-289.7,357.5-289.5,357.5z"/>
	<path fill="#FEFEFE" d="M-280.5,361.4c-2.3,0-4.7,0-7,0c0,0,0,0,0,0c0-1.3,0-2.5,0-3.8c0.2,0,0.4,0,0.6,0c0,0,0,0,0,0.1
		c0,0.1,0,0.2,0,0.4c0,0.7,0,1.5,0,2.2c0,0,0,0,0,0c0,0,0,0,0,0c1.5-0.9,2.9-1.8,4.4-2.6c0,0,0.1,0,0.1,0c0.6,0,1.2,0,1.8,0
		c0,0,0,0,0,0c0,0.4,0,0.7,0,1.1c0,0,0,0,0,0c-0.9,0.5-1.7,1-2.6,1.6c-0.2,0.1-0.5,0.3-0.7,0.4c0,0,0,0,0,0c0,0,0,0,0,0
		c1.1,0,2.2,0,3.3,0c0,0,0.1,0,0.1,0C-280.5,360.9-280.5,361.2-280.5,361.4z"/>
	<path fill="#FEFEFE" d="M-296.5,363.3c2.3,0,4.7,0,7,0c0,0,0,0,0,0c0,1.3,0,2.5,0,3.8c-0.2,0-0.4,0-0.6,0c0,0,0,0,0-0.1
		c0-0.1,0-0.2,0-0.3c0-0.7,0-1.5,0-2.2c0,0,0,0,0,0c0,0,0,0,0,0c0,0,0,0,0,0c-0.3,0.2-0.6,0.4-0.9,0.6c-1.1,0.6-2.2,1.3-3.2,1.9
		c-0.1,0-0.1,0.1-0.2,0.1c0,0-0.1,0-0.1,0c-0.6,0-1.2,0-1.8,0c0,0,0,0,0,0c0-0.4,0-0.7,0-1.1c0,0,0,0,0.1-0.1
		c0.4-0.2,0.7-0.4,1.1-0.7c0.7-0.4,1.5-0.9,2.2-1.3c0,0,0,0,0,0c0,0,0,0,0,0c-1.1,0-2.2,0-3.3,0c0,0-0.1,0-0.1,0
		C-296.5,363.7-296.5,363.5-296.5,363.3z"/>
	<path fill="#FEFEFE" d="M-287.5,367.1c0-1.3,0-2.5,0-3.8c0,0,0,0,0,0c2.3,0,4.7,0,7,0c0,0.2,0,0.4,0,0.6c0,0,0,0,0,0c0,0,0,0-0.1,0
		c-1.1,0-2.2,0-3.3,0c0,0,0,0,0,0c1,0.6,2,1.2,3,1.8c0.1,0.1,0.2,0.1,0.3,0.2c0,0,0,0,0.1,0.1c0,0.4,0,0.7,0,1.1c0,0,0,0,0,0
		c-0.6,0-1.2,0-1.8,0c-0.1,0-0.1-0.1-0.2-0.1c-1.4-0.9-2.8-1.7-4.3-2.6c0,0,0,0,0,0c0,0,0,0,0,0c0,0,0,0,0,0c0,0.9,0,1.7,0,2.6
		c0,0,0,0.1,0,0.1C-287.1,367.1-287.3,367.1-287.5,367.1z"/>
	<path fill="#00247C" d="M-294.6,367.1C-294.6,367.1-294.6,367.1-294.6,367.1c1.5-0.9,3-1.8,4.5-2.7c0,0,0,0,0,0c0,0.9,0,1.8,0,2.7
		C-291.6,367.1-293.1,367.1-294.6,367.1z"/>
	<path fill="#00247C" d="M-286.9,367.1c0-0.9,0-1.8,0-2.7c0,0,0,0,0,0c1.5,0.9,3,1.8,4.5,2.7c0,0,0,0,0,0
		C-283.9,367.1-285.4,367.1-286.9,367.1z"/>
	<path fill="#00247C" d="M-290.1,357.5c0,0.9,0,1.8,0,2.7c0,0,0,0,0,0c-1.5-0.9-3-1.8-4.5-2.7c0,0,0,0,0,0
		C-293.1,357.5-291.6,357.5-290.1,357.5z"/>
	<path fill="#00247C" d="M-282.4,357.5C-282.4,357.5-282.4,357.6-282.4,357.5c-1.5,0.9-3,1.8-4.5,2.7c0,0,0,0,0,0c0-0.9,0-1.8,0-2.7
		C-285.4,357.5-283.9,357.5-282.4,357.5z"/>
	<path fill="#00247D" d="M-296.5,358.7c0.5,0.3,1,0.6,1.4,0.9c0.7,0.4,1.3,0.8,2,1.2c0,0,0,0,0,0c-1.2,0-2.3,0-3.5,0
		C-296.5,360-296.5,359.3-296.5,358.7z"/>
	<path fill="#00247C" d="M-280.5,360.7c-1.2,0-2.3,0-3.5,0c0,0,0,0,0,0c1.1-0.7,2.3-1.4,3.4-2.1c0,0,0,0,0,0
		C-280.5,359.3-280.5,360-280.5,360.7z"/>
	<path fill="#00247D" d="M-296.5,363.9c1.2,0,2.3,0,3.5,0c0,0,0,0,0,0c-1.2,0.7-2.3,1.4-3.5,2.1
		C-296.5,365.3-296.5,364.6-296.5,363.9z"/>
	<path fill="#00247D" d="M-280.5,366c-1.2-0.7-2.3-1.4-3.5-2.1c0,0,0,0,0,0c1.2,0,2.3,0,3.5,0C-280.5,364.6-280.5,365.3-280.5,366z"
		/>
</g>
</svg>
