<?xml version="1.0" encoding="utf-8"?>
<!-- Generator: Adobe Illustrator 18.0.0, SVG Export Plug-In . SVG Version: 6.00 Build 0)  -->
<!DOCTYPE svg PUBLIC "-//W3C//DTD SVG 1.1//EN" "http://www.w3.org/Graphics/SVG/1.1/DTD/svg11.dtd">
<svg version="1.1" id="Calque_1" xmlns="http://www.w3.org/2000/svg" xmlns:xlink="http://www.w3.org/1999/xlink" x="0px" y="0px"
	 viewBox="0 0 1024 768" enable-background="new 0 0 1024 768" xml:space="preserve">
<g id="BG">
	
		<image display="none" overflow="visible" enable-background="new    " width="3247" height="3247" id="Light_Grey" xlink:href="DADBF157.png"  transform="matrix(0.2365 0 0 0.2365 128 0)">
	</image>
</g>
<g id="Extras">
	<path id="Ground" display="none" fill="#FFFFFF" d="M577.8,435.1c10.4,11.7,43.8,2.4,61.7,13.2c30.2,18.2,111.3,24.9,108.2,37.6
		c-4.4,18.1-61.8,38.7-84.3,44.5c-72,18.7-54.9,44.3-147.2,43.2c-141.1-1.8-77.6-47.5-215.1-64.3c-22.7-2.7-32.4-10.9-32.6-20
		c-0.9-30.5,70.2-36.8,72.1-37c24.4-2.4,31-3.9,43.1-9.3c11.2-4.9,62.4-16,62.2-16C505.1,420,557.8,426.3,577.8,435.1z"/>
	<g id="Colors" display="none">
		<rect id="Brown" x="165.3" y="51.7" display="inline" fill="#FFFFFF" width="46.1" height="46.1"/>
		<rect id="Dark_grey" x="165.3" y="108.4" display="inline" fill="#FFFFFF" width="46.1" height="46.1"/>
		<rect id="Light_grey" x="165.3" y="166.9" display="inline" fill="#FFFFFF" width="46.1" height="46.1"/>
	</g>
	<g id="Txt_bck">
		<g id="Sur_Un_Baobab_1_">
			<path fill="#FFFFFF" d="M199.4,520.2c-2.2-1.4-4.5-2.4-6.8-2.9c-2.3-0.4-4.6-0.1-6.9,1c-2.6,1.5-4.4,4.9-5.4,10.6
				c-0.1,1-0.5,4.6-1.1,11c-0.2,2.5-0.2,4.9,0.2,7.1c0.3,2.2,1,4.4,2,6.5c1,2,1.9,3.7,2.7,5s2,3,3.5,4.9l3.6,4.9
				c0.8,1,1.6,2.5,2.9,4.6c1.1,2,2,4.1,2.5,6s0.9,4.2,1,6.6c0,0.1,0,0.5,0.2,2.4c0.1,1.3,0.1,2.2,0.1,2.6s0,1,0,1.9
				c0,0.9-0.1,1.6-0.3,2.3c-0.8,3.3-2.4,5.7-5,7.2c-2.1,1.3-5.2,2.2-9.1,2.5c-0.1,0-0.3,0-1,0.1c-0.4,0.1-0.8,0.1-1.1,0.1
				c-0.3,0.1-0.5,0.1-0.8,0.1h-0.1c-1.1-0.5-1.6-2-1.9-4.3c-0.3-2.5,0-4.5,0.7-5.9c0.3-0.7,0.4-1.2,0.2-1.6
				c-0.1-0.4-0.5-0.9-1.1-1.2c-0.5-0.3-1.2-0.4-1.6-0.2c-0.4,0.1-0.9,0.5-1.1,1.1c-1.2,2.2-1.6,5-1.3,8.3c0.4,4.2,2,6.8,4.6,7.8
				c0.4,0.2,1,0.2,1.5,0.2c0.4,0,0.8,0,1.2-0.1c0.3,0,0.7,0,1.2-0.1c0.3-0.1,0.5-0.1,0.8-0.1c4.7-0.3,8.4-1.4,11.1-3.2
				c3.5-2.1,5.8-5.5,6.9-9.9c0.1-0.7,0.2-1.4,0.3-2.1c0.1-0.8,0.1-1.5,0.1-2.3c0-0.8,0-1.5-0.1-2c0-0.5-0.1-1.2-0.2-2.1
				c-0.1-0.9-0.1-1.4-0.1-1.9c-0.1-2.6-0.5-5.2-1.2-7.5c-0.7-2.3-1.6-4.6-2.9-6.9c-1.3-2.2-2.3-3.8-3-4.9c-0.7-1-2-2.7-3.7-4.9
				c-1.9-2.5-3.3-4.6-4.3-6.3s-1.8-3.7-2.5-6.3c-0.8-2.6-1-5.4-0.8-8.2c0.7-6.7,1-10.1,1.1-10.6c0.8-4.3,1.9-6.9,3.4-7.8
				c1.1-0.5,2.4-0.8,4.1-0.4c1.8,0.3,3.5,1.1,5.3,2.2c1.8,1.1,3.2,2.4,4.2,3.9c1,1.4,1.3,2.7,1.1,3.8c-0.1,0.5,0,1.1,0.3,1.5
				s0.8,0.8,1.4,0.8c0.5,0.1,1.1,0,1.5-0.3s0.7-0.8,0.8-1.4c0.3-2.2-0.2-4.5-1.6-6.6C203.5,523.3,201.7,521.6,199.4,520.2z"/>
			<path fill="#FFFFFF" d="M252.7,614.4c-0.3-0.1-0.7-0.1-1-0.1c-0.4,0-0.5-0.1-0.5-0.1c-0.1,0-0.2-0.1-0.3-0.1V614
				c-0.1-0.3-0.3-1.2-0.1-3.4c0.1-3,0.2-4.4,0.2-4.7c-0.8-11.8-1.1-21.2-0.8-27.6c0-0.8,0.1-1.8,0.2-2.9c0-0.1,0.1-0.4,0.2-1.5
				c0.1-0.8,0.2-1.3,0.2-1.8c0.4-2.9,0.4-5.2,0-7v-0.1c0-0.1,0-0.1,0-0.1l-0.1-0.4l-0.4-0.4c-0.2-0.2-0.3-0.3-0.5-0.4
				c-1-0.3-1.8-0.1-2.3,0.8c-0.2,0.1-0.3,0.3-0.4,0.7c0,0.2-0.1,0.4-0.1,0.9v0.7l-0.1,0.3v0.1c0,0.4,0,1.1-0.1,2.3
				c-0.1,0.9-0.1,1.9-0.2,2.6c-0.1,0.8-0.1,1.9-0.2,3.5c-0.1,1.5-0.2,3-0.3,4.1c-0.1,1.1-0.2,2.2-0.4,3.2c-0.3,1.8-0.7,4.8-1,9
				c-0.4,3.8-0.8,6.8-1.2,8.8c-1.2,6.3-4.1,10.5-8.2,12.7c-0.4,0.2-0.9,0.4-1.3,0.7c-0.5,0.3-0.8,0.4-0.9,0.4l-0.8,0.2
				c-0.2,0.1-0.5,0.1-1,0.1c-1.4,0.1-2.6-1.4-3.4-4.3c-0.9-3-1.4-7.4-1.4-12.8c-0.1-4.4,0.1-9,0.5-13.6s0.9-8.1,1.3-10.5
				c0.1-0.4,0-1-0.3-1.4c-0.3-0.4-0.8-0.8-1.2-0.8c-0.5-0.1-1,0-1.4,0.3c-0.4,0.3-0.8,0.8-0.9,1.3c-0.4,2.4-0.9,6-1.3,10.9
				c-0.4,4.7-0.5,9.4-0.5,13.9c0.1,6,0.7,10.8,1.6,14c1.4,4.6,3.8,7,7.1,7c0.1,0,0.2,0,0.3,0c0.7,0,1.3-0.1,1.9-0.3s1-0.3,1.3-0.4
				c0.2-0.1,0.7-0.3,1.2-0.7c0.5-0.3,0.9-0.5,1.1-0.7c5-2.5,8.3-7.1,10.1-13.7l0.2,3.1c0,0.2-0.1,3.2-0.2,4.3
				c-0.2,2.5-0.1,4.3,0.4,5.4c0.2,0.4,0.5,0.9,0.9,1.2c0.3,0.3,0.8,0.7,1.2,0.8c0.4,0.2,0.8,0.3,1.1,0.3c0.2,0.1,0.5,0.1,1,0.2
				l0.5,0.1c0.5,0.1,1.1,0,1.5-0.3c0.4-0.3,0.8-0.8,0.9-1.2c0.1-0.5,0-1-0.3-1.4C253.6,614.8,253.3,614.5,252.7,614.4z"/>
			<path fill="#FFFFFF" d="M291.1,555c-0.4-0.3-0.9-0.4-1.4-0.3c-4.2,0.7-6.9,1.5-8.4,2.9c-3.1,2.6-4.8,7.7-5.3,15.1
				c-0.1,1.3-0.1,2.9-0.1,4.5c-0.4-2-0.8-3.6-0.9-3.8c-0.2-0.9-0.4-3.7-0.9-8.6c-0.3-4.1-1-7.1-2-9.2l0,0c-0.5-1.1-1.5-1.5-2.6-1
				c-0.5,0.2-1,0.7-1.1,1.1c-0.2,0.4-0.1,1,0.1,1.5c0.8,1.6,1.3,4.3,1.6,7.9c0.4,5,0.7,8,0.9,9.2c0,0.2,0.3,1.5,1.5,6.7
				c0.7,2.9,1.1,5,1.3,6.6c0,0.2,0.2,2,0.9,9.3c0.2,2.4,0.3,4.4,0.5,5.7c0.1,0.8,0.1,1.4,0.2,2.1c0.1,0.2,0.1,0.4,0.1,0.5v0.1
				c0.1,0.3,0.1,0.5,0.2,0.7c0.1,0.2,0.2,0.3,0.3,0.4c0.3,0.3,0.7,0.7,1.3,0.7c0.1,0,0.2,0,0.2,0c0.7,0,1.1-0.3,1.5-0.8
				c0.2-0.2,0.3-0.4,0.4-0.8c0-0.2,0.1-0.4,0.1-0.7v-0.1v-1c0.1-0.7,0.1-1.1,0.2-1.2v-0.1c0.1-0.2,0.1-0.3,0.1-0.4v-0.5
				c0-0.4,0-1,0.1-1.6c0.2-3.5,0.2-7.5,0-12c0-0.1,0-0.9-0.2-4.3c-0.2-2.6-0.2-4.4-0.2-5.2s0-2.6,0-5.6c0.4-6.4,1.8-10.5,3.9-12.4
				c1-0.9,3.2-1.5,6.5-2c0.5-0.1,1-0.3,1.3-0.8c0.3-0.4,0.4-0.9,0.3-1.4C291.8,555.8,291.6,555.4,291.1,555z"/>
			<path fill="#FFFFFF" d="M378.4,548.6c0-0.5-0.2-1.8-2.2-1.8s-2.2,1.3-2.2,1.8c0,3.2,0.2,9,0.5,17.2c0.3,8.2,0.4,15.3,0.2,21
				c-0.2,5.6-1,11.2-2.2,16.8c-1,4.5-2.6,7.9-4.7,10.2c-2.9,3-6.5,3.7-11.3,2.4c-2.4-0.7-4.4-2.9-5.7-6.4c-0.9-2.2-1.5-5.4-2-9.4
				c-1.2-9.9-0.9-23.1,0.8-39.6c0.1-1,0.4-3.1,1-6.3c0.5-2.7,0.9-5,0.9-6.7c0-0.5-0.2-1.8-2.2-1.8c-2,0-2.2,1.3-2.2,1.8
				c0,1.5-0.2,3.6-0.7,6c-0.7,3.3-1.1,5.4-1.2,6.5c-1.8,16.7-2,30.3-0.8,40.2c0.5,4.4,1.3,7.8,2.1,10.2c1.8,4.7,4.6,7.7,8.4,8.8
				c2,0.5,3.9,0.9,5.7,0.9c4.1,0,7.6-1.4,10.3-4.4c2.6-2.7,4.6-6.8,5.7-12c1.2-5.5,2-11.3,2.2-17.2s0.2-13.1-0.2-21.3
				C378.5,557.3,378.4,551.6,378.4,548.6z"/>
			<path fill="#FFFFFF" d="M422.4,582.8c-0.8-1.5-1.8-2.6-2.9-3.4c-1.5-1.2-3.2-1.6-4.9-1.5c-3,0.2-5.8,2.1-8.4,5.4
				c-1.9,2.4-3.7,5.7-5.6,9.9c-1,2.2-2,4.8-3.1,7.8c-0.4-11.4-0.5-18.1-0.5-19.7c0-0.5-0.2-1.8-2.2-1.8s-2.2,1.3-2.2,1.8
				c0,3.6,0.1,9.2,0.4,16.3s0.4,12.6,0.4,16.1c-0.5,1.8-1,3.5-1.3,4.9c-0.4,1.5-0.7,2.9-0.8,3.9v1.4v0.1c0.1,0.3,0.2,0.7,0.4,0.9
				c0.3,0.5,0.9,1,1.6,1.1c0.9,0.1,1.6-0.1,2.2-0.7c0.2-0.2,0.4-0.4,0.5-0.7c0.2-0.2,0.3-0.5,0.4-1c0.2-0.8,0.4-1.6,0.5-2.9
				c0.4-2.4,0.5-4.7,0.5-6.8c0.2-0.7,0.4-1.2,0.5-1.6c0.1-0.3,0.4-1.8,1.2-4.2c0.8-2.4,1.5-4.8,2.3-7.1s1.6-4.6,2.6-6.7
				c1.6-3.8,3.4-6.9,5.2-9.1c1.9-2.4,3.6-3.6,5.4-3.7c0.4,0,0.9,0.1,1.3,0.5c0.7,0.5,1.3,1.3,2,2.4c1.1,2,1.9,3.9,2.1,5.6
				c0.1,1.6,0.2,3.3,0.2,5.2c0,1.9,0,3.4-0.1,4.7c-0.1,1.2-0.2,3.1-0.4,5.4c-0.2,2.3-0.3,3.9-0.4,4.9c-0.1,1.9-0.1,4.7,0.2,8.6
				c0.3,3.9,0.4,6.7,0.4,8.1c0,0.5,0.2,1.8,2.2,1.8s2.2-1.3,2.2-1.8c0-1.5-0.1-4.3-0.4-8.4c-0.3-3.4-0.4-6-0.2-8
				c0.1-1.2,0.2-2.9,0.3-4.9c0.2-2.3,0.4-4.2,0.4-5.5c0.1-1.3,0.1-3,0.1-4.9c0-2-0.1-3.7-0.2-5.4
				C424.7,587.4,423.8,585.1,422.4,582.8z"/>
			<path fill="#FFFFFF" d="M522.2,555.4h-1.3c-3.9,0-8.1,1.2-12.2,3.4c0.2-2.3,1.1-6.7,2.5-12.9v-6.5v-0.2c-3.6-11.3-9.3-17-17.1-17
				c-11.8,0-18.4,10.1-19.7,30v14.2C481.3,613.6,486,619,489,619h0.1l3.1-1.4v-0.4c-4.2-30.8-7.2-58.4-8.9-81.7
				c0-3.7,3.2-6.1,9.7-7.1h4.9c5.7,3.6,8.6,7.8,8.6,12.3v2.5c0,8.4-4.3,16.9-12.6,25.1l-0.1,0.1v5l0.9-0.5
				c13.9-8.4,23.3-12.6,27.9-12.6c0.5,0,0.8,0.2,0.8,0.8v0.5h0.5c11.7,0,20.6,7.6,26.2,22.5v4.9c-4.9,14-16.8,21.2-35.2,21.2h-7.7
				c-3.5,0-7.7-2.1-12.4-6.3l-0.1-0.1h-2.1v3.3l0.1,0.1c4.2,6,10.8,9.2,19.6,9.2l0,0l7.6-1.3c17.3,0,29.6-9.1,36.3-27.2v-0.2
				c0-3.7-0.9-7.4-2.6-10.5C543.4,562.7,533,555.4,522.2,555.4z M482,584v0.8h-0.2c-1.6-11.7-2.4-20.2-2.4-25v-12.3h0.2L482,584z"/>
			<path fill="#FFFFFF" d="M626.1,621.1c-6.7-4.4-11.5-9.7-14.4-15.5c-6.3-28-8.1-28-9-28h-1.5v0.5c0,0.7-0.3,1.6-1,3l-0.1,0.2
				l0.1,0.2c1.3,4.1,2.1,7.6,2.1,10.5c0,14.6-4.5,22.9-13.3,25c-6.7-0.9-10.1-2.9-10.1-5.9c0-14.3,4.8-23.7,14.4-28.2l4.1,1h1.8
				v-1.8l-0.1-0.1c-1.2-2.3-2.4-3.5-3.7-3.5h-3.2h-0.2c-11.5,5.4-17.3,15.6-17.3,30.3c0,7.7,4.5,11.7,13.3,12.3
				c5.2,0,9.9-2.5,14.3-7.7l0.1-0.1v-0.1c2.2-8.8,3.6-11.8,4.3-12.8c0.4,8.6,6.7,16.9,18.3,24.9l0.1,0.1h3.3c1.8,0,2.7-1,2.7-2.7
				V620h-0.5C628.7,620.1,627.3,620.4,626.1,621.1z"/>
			<path fill="#FFFFFF" d="M660,565.9c-4.2-2.7-9.2-3.7-14.9-2.9c-2.6,0.4-5.5,2.6-8.8,6.7c-3.3,4.1-5.4,8-6.1,11.6
				c-0.8,3.3-0.9,7.2-0.2,11.6c0.5,4.4,1.8,8.3,3.5,11.7c2.1,3.9,4.8,6.7,8.1,8.1c1.6,0.8,3.4,1.1,5.4,1.1c0.9,0,1.9-0.1,2.9-0.2
				c3,0.2,5.7-0.9,8.3-3.1c2.5-2.1,4.7-5.3,6.7-9.3c1.8-3.7,3.1-7.6,3.9-11.5c0.8-3.9,1.1-7.4,0.7-10
				C668.5,574.2,665.4,569.6,660,565.9z M647.1,610c-1.4,0-2.7-0.3-4.1-0.9c-2.4-1-4.5-3.2-6.3-6.4c-1.5-3-2.6-6.4-3.2-10.4
				c-0.5-3.9-0.4-7.5,0.3-10.4c0.7-3,2.4-6.3,5.4-10c2.6-3.3,4.7-5,6.4-5.3c1.2-0.2,2.3-0.3,3.4-0.3c3.3,0,6.3,0.9,8.8,2.6
				c4.4,3.1,7,6.8,7.6,11.2c0.3,2.2,0.1,5.2-0.7,8.8c-0.8,3.6-2,7.1-3.5,10.5c-1.8,3.6-3.7,6.3-5.7,8.1c-0.4,0.3-0.9,0.7-1.3,0.9
				c-0.4-0.2-1-0.2-1.5,0c-1.1,0.5-2.2,0.9-3.3,1.1l-0.7-0.2C648,609.4,647.5,609.6,647.1,610z"/>
			<path fill="#FFFFFF" d="M695.3,568.8c-2.1-1-4.2-1.5-6-1.4l0.5-3.7c0.4-3,0.7-5.5,0.8-7.4c0.1-2.3,0-6-0.1-11
				c-0.2-4.6-0.3-8.1-0.1-10.5c0-0.9,0.1-2.2,0.3-3.9c0.2-1.8,0.4-3.2,0.4-4.3c0.1-1.1,0-2.6-0.1-4.5l0,0c-0.1-0.7-0.4-1.1-0.9-1.4
				c-0.4-0.3-1.1-0.5-1.6-0.4c-0.7,0.1-1.1,0.4-1.4,0.9c-0.3,0.4-0.5,1.1-0.4,1.6c0.1,1.8,0.2,3,0.1,3.7s-0.2,2.1-0.4,3.8
				c-0.2,1.8-0.3,3.2-0.4,4.4c-0.1,2.5-0.1,6.3,0.1,11.1c0.1,4.7,0.2,8.3,0.1,10.6c-0.1,1.8-0.3,3.9-0.7,6.7c-0.1,0.4-0.2,1-0.3,1.9
				c-0.1,0.9-0.2,1.6-0.3,2.3l-0.2,1.6c-0.3,0.2-0.7,0.4-0.9,0.7c-1.1,0.9-1.2,2.1-0.3,3.2c0.2,0.3,0.4,0.5,0.8,0.7
				c-0.3,3.7-0.4,11.4-0.4,22.9c0,5.2,0,9.2,0.1,12.2c0.1,3.1,0.2,5.5,0.3,7.4c0.1,1.1,0.3,2,0.3,2.7c0.1,0.4,0.2,0.9,0.3,1.1
				c0.2,0.7,0.5,1.1,1,1.3c0.8,0.7,1.9,1,3.2,1.1l2,0.2c1.4,0.3,2.7,0.4,4.1,0.4c3.4,0,6.6-1,9.3-3c3.9-2.7,6.8-6.7,8.3-11.5
				c3.5-10.8,0.4-21.7-9-32.6C701.1,572.5,698.3,570.2,695.3,568.8z M708.7,606.9c-1.3,3.9-3.5,7-6.6,9.1c-3,2.1-6.5,2.6-10.2,1.9
				h-0.1c0,0-0.3,0-2.5-0.2c0,0-0.1,0-0.4-0.1c-0.1-0.5-0.2-1.2-0.3-2.1c-0.1-1.9-0.3-4.3-0.3-7.1c-0.1-2.9-0.1-6.9-0.1-12.1
				c0-12.2,0.2-20.4,0.5-24.4c1.3-0.3,3,0,4.6,0.9c2.4,1.2,4.8,3.2,7.1,5.8C708.8,588.2,711.7,597.7,708.7,606.9z"/>
			<path fill="#FFFFFF" d="M788.7,621.1c-6.7-4.4-11.5-9.7-14.4-15.5c-6.3-28-8.1-28-9-28h-1.5v0.5c0,0.7-0.3,1.6-1,3l-0.1,0.2
				l0.1,0.2c1.3,4.1,2.1,7.6,2.1,10.5c0,14.6-4.5,22.9-13.3,25c-6.7-0.9-10.1-2.9-10.1-5.9c0-14.3,4.8-23.7,14.4-28.2l4.1,1h1.8
				v-1.8l-0.1-0.1c-1.2-2.3-2.4-3.5-3.7-3.5h-3.2h-0.2c-11.5,5.4-17.3,15.6-17.3,30.3c0,7.7,4.5,11.7,13.3,12.3
				c5.2,0,9.9-2.5,14.3-7.7l0.1-0.1v-0.1c2.2-8.8,3.6-11.8,4.3-12.8c0.4,8.6,6.7,16.9,18.3,24.9l0.1,0.1h3.3c1.8,0,2.7-1,2.7-2.7
				V620h-0.7C791.3,620.1,789.9,620.4,788.7,621.1z"/>
			<path fill="#FFFFFF" d="M824.6,592.9h-0.1c-7.7,0-14.2,6.3-19.1,18.7h-0.2V556l1.2-6.3l-2.9-1.4h-3v32.1c0,21-0.8,41.8-2.3,62
				v0.5h4.7v-2.2l5.3,1.1h5.8c11.3,0,18.5-11.6,21.6-34.6v-2.3C835.5,598.7,831.8,594.5,824.6,592.9z M830.8,606.3
				c-2.5,20.6-8.7,31-18.2,31h-3.5c-1.5,0-3-0.3-4.2-0.9c0.1-16.9,5-29.6,14.9-37.7h6.8C828.4,598.7,829.8,601.3,830.8,606.3z"/>
		</g>
		<g id="animation_workshop">
			<path fill="#FFFFFF" d="M289,685.3h0.5c0.9,0,2.3,4.9,4.5,14.7c1.5,3.2,4.2,6,7.9,8.4c0.7-0.3,1.4-0.5,2.3-0.5v1.1
				c0,0.8-0.3,1.1-1.1,1.1h-1.8c-6.4-4.4-9.7-8.9-9.7-13.6c-0.7,0-1.5,2.4-2.9,7.4c-2.3,2.6-4.7,3.9-7.4,3.9
				c-4.5-0.2-6.8-2.3-6.8-6.1c0-7.7,3-12.9,9-15.8h1.6c0.5,0,1.1,0.5,1.8,1.6v0.5h-0.5l-2.2-0.5c-5.3,2.4-7.9,7.5-7.9,15.3
				c0,1.8,1.9,3,5.6,3.4c4.9-1.1,7.4-5.6,7.4-13.6c0-1.5-0.3-3.5-1.1-5.7C288.8,686.2,289,685.6,289,685.3z"/>
			<path fill="#FFFFFF" d="M317,684.1c5.3,1.4,7.9,5.4,7.9,11.8v3.9h-1.6v-2.2c0-6.4-1.9-10.3-5.7-11.8h-1.1
				c-3.2,0-5.4,5.8-6.8,17.4H308v-0.5l-1.8-11.3h0.5c1.1,0.2,1.6,1.5,1.6,3.9h0.5C310.7,687.8,313.3,684.1,317,684.1z"/>
			<path fill="#FFFFFF" d="M337,685.3h1.6v16.9h-2.2l0.5-3.9V685.3z M339.3,668.3h1.1c0.8,0.1,1.1,0.5,1.1,1.1v1.1
				c0,0.5-0.5,1.1-1.8,1.8h-1.1c-0.8,0-1.1-0.3-1.1-1.1V670C337.7,669.5,338.2,668.8,339.3,668.3z"/>
			<path fill="#FFFFFF" d="M369.6,686.4h1.8c4.2,3,6.1,7.8,6.1,14.7c-0.3,2.1-0.5,3.6-0.5,4.5h-0.5c-0.8,0-1.1-0.3-1.1-1.1v-7.4
				c0-3.4-1.5-6.4-4.5-9h-0.5c-3.5,0-6.1,3.7-7.9,11.3h-0.7c-0.3,0-1.3-2.1-2.9-6.1l-2.3-1.8c-1.5,0-2.4,4.2-2.9,12.4v1.8h-1.1
				c-0.8,0-1.5-2.6-2.2-7.9v-3.9h1.8v3.9h0.5c0.7-5.3,1.5-7.9,2.9-7.9h1.6c0.9,0.3,2.4,1.6,4.5,3.9h0.5
				C362.3,690.7,364.8,688.1,369.6,686.4z"/>
			<path fill="#FFFFFF" d="M402.7,685.3h0.5c0.9,0,2.3,4.9,4.5,14.7c1.5,3.2,4.2,6,7.9,8.4c0.7-0.3,1.4-0.5,2.3-0.5v1.1
				c0,0.8-0.3,1.1-1.1,1.1h-1.6c-6.4-4.4-9.7-8.9-9.7-13.6c-0.7,0-1.5,2.4-2.9,7.4c-2.3,2.6-4.7,3.9-7.4,3.9
				c-4.5-0.2-6.8-2.3-6.8-6.1c0-7.7,3-12.9,9-15.8h1.6c0.5,0,1.1,0.5,1.8,1.6v0.5h-0.5l-2.2-0.5c-5.3,2.4-7.9,7.5-7.9,15.3
				c0,1.8,1.9,3,5.6,3.4c4.9-1.1,7.4-5.6,7.4-13.6c0-1.5-0.3-3.5-1.1-5.7C402.5,686.2,402.7,685.6,402.7,685.3z"/>
			<path fill="#FFFFFF" d="M422.4,677.8h1.1c0.8,0.1,1.1,0.5,1.1,1.1v4.5l0.5,5.7c5.9-1.5,9.1-2.3,9.7-2.3c0.8,0.1,1.1,0.5,1.1,1.1
				v1.1h-0.5l-1.1-0.5c-6,1.6-9,2.7-9,3.4v12.5c0,0.8-0.3,1.1-1.1,1.1h-0.5v-13.6l-5.6,0.5h-1.1v-1.8h0.5l5.6-0.5V689
				C422.9,686.7,422.8,683,422.4,677.8z"/>
			<path fill="#FFFFFF" d="M442.7,685.3h1.6v16.9h-2.2l0.5-3.9V685.3z M444.9,668.3h1.1c0.8,0.1,1.1,0.5,1.1,1.1v1.1
				c0,0.5-0.5,1.1-1.8,1.8h-1.1c-0.8,0-1.1-0.3-1.1-1.1V670C443.2,669.5,443.8,668.8,444.9,668.3z"/>
			<path fill="#FFFFFF" d="M465.8,683h2.9c3.6,0,6.5,2.6,8.4,7.9v1.8c-1.8,8.7-5.7,12.9-11.8,12.9c-4.3,0-7.5-3.2-9.7-9.7
				C458.5,687.3,461.9,683,465.8,683z M464.7,684.6c-4.1,4.2-6.6,7.9-7.4,11.3c2.2,5.3,5,7.9,8.4,7.9c6.4-1.4,9.5-5.9,9.5-13.6
				c-2.4-3.7-4.7-5.6-6.8-5.6c-1.2,0.8-2.2,1.1-2.9,1.1C465.8,685.1,465.4,684.6,464.7,684.6z"/>
			<path fill="#FFFFFF" d="M497.7,684.1c5.3,1.4,7.9,5.4,7.9,11.8v3.9H504v-2.2c0-6.4-1.9-10.3-5.7-11.8h-1.1
				c-3.2,0-5.4,5.8-6.8,17.4h-1.6v-0.5l-1.8-11.3h0.5c1.1,0.2,1.6,1.5,1.6,3.9h0.5C491.3,687.8,493.9,684.1,497.7,684.1z"/>
			<path fill="#FFFFFF" d="M555.9,684.1c1.2,0,2.5,3.4,3.9,10.1c-1.6,6.8-4.7,10.2-9,10.2c-0.9,0-2.5-1.1-5-3.4
				c0,2.3-1.9,4.5-5.6,6.8c-3.4,0-5-4.5-5-13.6v-5.6h2.2l-0.5,2.9v1.8c0.3,8.2,1.3,12.4,2.9,12.4h1.1c1.2,0,2.6-2.9,4.5-8.4h1.1
				c0,2.6,1.6,4.5,5,5.6c4.5-2.3,6.8-5.2,6.8-8.4c0-2.2-1.2-5.2-3.4-9C554.8,684.5,555.2,684.1,555.9,684.1z"/>
			<path fill="#FFFFFF" d="M579.6,683h2.9c3.6,0,6.5,2.6,8.4,7.9v1.8c-1.8,8.7-5.7,12.9-11.8,12.9c-4.3,0-7.5-3.2-9.7-9.7
				C572.2,687.3,575.6,683,579.6,683z M578.5,684.6c-4.2,4.2-6.6,7.9-7.4,11.3c2.2,5.3,5,7.9,8.4,7.9c6.4-1.4,9.5-5.9,9.5-13.6
				c-2.4-3.7-4.7-5.6-6.8-5.6c-1.2,0.8-2.2,1.1-2.9,1.1C579.6,685.1,579.1,684.6,578.5,684.6z"/>
			<path fill="#FFFFFF" d="M610,680.7h1.1v1.6c-3.7,0-6.1,1.1-7.4,3.4c0.3,6.8,0.5,11.2,0.5,12.9l-0.5,2.9h-2.2v-1.8l1.1-1.6
				c-0.3-6.8-0.5-11.2-0.5-12.9C603.5,682.2,606.1,680.7,610,680.7z"/>
			<path fill="#FFFFFF" d="M617.2,663.8h1.1c0.8,0,1.5,1.6,2.2,5c-0.2,2.6-0.7,3.9-1.1,3.9c0.3,0.8,0.5,1.3,0.5,1.6
				c0.3,16.3,0.5,25.2,0.5,26.6l-1.1,0.5h-0.5v-0.4c-0.3-11.3-0.5-17.9-0.5-19.7c-0.9,0-1.4-1-1.8-2.9l1.1-5.6
				c-0.3-3.3-0.5-6.1-0.5-8.4v-0.7H617.2z M630.7,677.3c0.8,0.1,1.1,0.4,1.1,1.1c-5.3,4.9-8.1,7.9-8.4,9c5.6,0,8.4,1.3,8.4,3.9
				c1.1,2.6,1.8,5,1.8,7.4h-1.8c-1-6.4-2.5-9.5-4.5-9.5c-3.3,0.3-5.4,0.5-6.1,0.5v-2.3C621.8,685.8,625,682.5,630.7,677.3z"/>
			<path fill="#FFFFFF" d="M651.4,678.5h1.1c0.8,0.1,1.1,0.5,1.1,1.1v0.5h-1.8c-3.2,0-5.8,1.5-7.9,4.5v1.6
				c9.4,0.9,14.2,3.5,14.2,7.9c0.3,0,0.5,0.8,0.5,2.3c0,4.3-3.7,6.9-11.3,7.9c-4.9-0.5-7.4-1.3-7.4-2.2v-1.1h0.5
				c3.9,1.1,6.5,1.6,7.4,1.6c4.6,0,7.6-2.3,9-6.8c0-4.7-4.7-7.4-14.2-7.9l-1.1-1.8C641.9,682.2,645.1,679.6,651.4,678.5z"/>
			<path fill="#FFFFFF" d="M669.7,666h0.5v0.5c1.1,9,1.6,15.3,1.6,18.7v14h0.5c1.6-7.9,5-11.8,10.2-11.8h3.4c3.5,0,5.6,3.4,6.1,10.2
				c0.3,2,0.5,3.8,0.5,5.6v3.4c0,0.8-0.3,1.1-1.1,1.1h-1.1l0.5-2.9v-1.5c-0.9-8.4-2.1-12.9-3.4-13.5h-7.8c-1.6,0-4.3,5-7.9,15.3
				h-1.6v-0.7c0-4.1-0.2-7.5-0.5-10.2c0.3-3.9,0.5-7.1,0.5-9.5l-1.8-18.1L669.7,666z"/>
			<path fill="#FFFFFF" d="M711.7,683h2.9c3.6,0,6.5,2.6,8.4,7.9v1.8c-1.8,8.7-5.7,12.9-11.8,12.9c-4.3,0-7.5-3.2-9.7-9.7
				C704.3,687.3,707.7,683,711.7,683z M710.5,684.6c-4.2,4.2-6.6,7.9-7.4,11.3c2.2,5.3,5,7.9,8.4,7.9c6.4-1.4,9.5-5.9,9.5-13.6
				c-2.4-3.7-4.7-5.6-6.8-5.6c-1.2,0.8-2.2,1.1-2.9,1.1C711.7,685.1,711.2,684.6,710.5,684.6z"/>
			<path fill="#FFFFFF" d="M735.8,679.6c3.8,0,6.6,4.3,8.4,12.9c0,1.9-1.9,3.9-5.6,6.1c1.9,6.3,3.2,12.1,3.9,17.6h-1.1
				c-0.5,0-2.4-5.5-5.7-16.3h-0.5c0-0.4,0.2-1,0.5-1.6c-0.8-4.3-1.6-6.9-2.9-7.9C733.2,683.2,734.2,679.6,735.8,679.6z M736.4,681.3
				c-0.8,1.2-1.1,2.3-1.1,3.4v0.5c0,0.9,1,4.8,2.9,11.8c3-1.5,4.5-3.6,4.5-6.3C741,686.2,738.9,683,736.4,681.3z"/>
		</g>
	</g>
</g>
<g id="Sur_Un_Baobab">
	<g id="Arc">
		<g>
			<path fill="#FFFFFF" d="M756.7,233.4c-2.7-6.4-181.6-296-443.5-118.7c-58,42.2-85.4,49.9-73.5,153.3c5.3,46,16.9,110.7,35,143
				c9.2,16.3,20.4,32.4,33.5,47.4c16.2-4.3,31.5-5.7,32.4-5.7c24.4-2.4,31-3.9,43.1-9.3c11.2-4.9,62.2-15.8,62.2-16
				c-70-16.5-130-137.6-99.8-218.3c14-37.5,38.1-72,68.2-93.7c0,0,0.1-0.1,0.4-0.3c-0.1,0.1-0.3,0.2-0.4,0.3
				c0.2,0,82.5-52.6,211.6,19.7c63.9,35.8,152.5,149.1,79.4,235.9c-31.4,37.2-75.8,46.3-127.7,64.3c10.4,11.7,43.8,2.4,61.7,13.2
				c20.8,12.6,66.2,19.7,91,27.1C769.7,418.7,791,313,756.7,233.4z M308.7,173.1l-32.1,48.9l-15.8-46.3L308.7,173.1z M269,295.2
				l12.4-53.8l47.6,42.7L269,295.2z M330.3,303.1l1.3,12.9l-48.9,15.8l-7.1-17.3L330.3,303.1z M327.5,435.3l-42.7-60l77.5,4.7
				L327.5,435.3z M341.4,337.4l5.8,15l-61.3,8.7l-5-14.3L341.4,337.4z M328.4,162c0.5-2-41.6-5.5-48.5-6.4c-4.9-0.5,10-13.2,10-13.2
				l50.6,10.5L328.4,162z M350.8,143.8l-43.2-14.3l18.4-9l32.7,18.7L350.8,143.8z M370,135.9l-26.1-23.5l49.3-12.4L370,135.9z
				 M403.3,97.2l17.7-19.4l22.6,16.9L403.3,97.2z M452.5,92.8l-14.7-17.9l12.1-6l14.9,21.5L452.5,92.8z M481,85.4l-10.5-19l12.6-2.1
				l10.5,22.2L481,85.4z M765.5,289h-25.2l-2.4-12.6l25.2-1.5L765.5,289z M760.1,261.3l-24.8,4.7l2.6-24.8L760.1,261.3z M505.2,87.6
				l-6.4-20.1l35.8,17.9L505.2,87.6z M567.3,99.1l-23.1-13.7l27.4-2.1L567.3,99.1z M574.6,105.4l10.5-17.9l7.4,4.2L582,103.4
				L574.6,105.4z M592.5,108.6l11.6-10.5l8.4,5.3l-13.7,7.4L592.5,108.6z M607.3,117l13.7-9.4l13.7,14.7L607.3,117z M639.9,127.5
				l19,5.3l-9.4,7.4L639.9,127.5z M655.7,147.6l11.6-8.4l5.3,6.4l-9.4,6.4L655.7,147.6z M668.5,157c0,0,0.9-0.4,2.3-1.1
				c3.8-1.8,11.4-5.3,11.4-5.3l3.2,6.4l-11.6,5.3L668.5,157z M692.6,163.4L701,176l-21.1-6.4L692.6,163.4z M701,182.3l15.8,7.4
				l-13.7,7.4L701,182.3z M709.5,203.4l15.8-6.4l3.9,5.5l-16.6,5.5L709.5,203.4z M715,212.8l17.9-6.4l1.9,5.5l-14.5,5.3L715,212.8z
				 M721.1,223.9l16.9-5.8l-1.1,16.9L721.1,223.9z M653.4,444.8c0,0,18.8-22.6,21.8-21.1c3.1,1.5,48.7,29.7,48.7,29.7L653.4,444.8z
				 M732.6,446.1l-57.9-32.9l17.9-6.6l48.5,24.5L732.6,446.1z M743.5,417.5l-41.9-18.7l7.9-11.1l40.3,16.6L743.5,417.5z
				 M716.6,377.2l25.2-19.5l14.3,34.8L716.6,377.2z M745,349l-7.9-27.6l26.6,13.2L745,349z M742.4,309.2l-2.9-11.6l26.9,5.5l-0.8,15
				L742.4,309.2z"/>
		</g>
	</g>
	<path id="Boabab" fill="#FFFFFF" d="M587,166.2c-0.1,17-21.4,15.4-37.6,18.4c-4.2,0.8-19,5.4-21.1,6c-0.7,2.1-0.5,11.8-1.1,13.9
		c-0.2,1.3,20.7-21.1,20.5-19.7c-0.2,1.6-18.3,27.8-17.7,35c1.8,18.9,5.4,26.1,37.4,54c27.2-5.8,43.2-40.3,45.1-52
		c-3.3,0.5-27.8-4.9-29.1-6.7c4.2-5.3,8.8-1.1,8.7-4.2c-0.1-3.1,4.6-7.4,7.9-8.7s15-2.1,15.1-2.4c0-0.4-6.5-2.6-14.8-2.3
		c3.1-5.8,12.8-7,32.4-8.7c6.7-0.5,12.1,16.5,17.9,16.3c5.8-0.1,7.8,14.4,3.9,15.6c-3.4,2.4-27.8,1.3-37.1,1.5
		c-2,7.1-4.5,19.1-9.2,29c-4.9,10.4-8.7,23.6-8.7,34.2c-0.1,14.6,0.9,14.4,3.4,25c6.3,2.4,18,10,30.5,6.8c6.5-1.6,10-7,16.9-12.1
		c-6,0.9-30.8-8.4-19-22.4c6.3-7.2,25.5-1.5,29.1-7.1c6-9.2,29.7,9,36.2,17.2c1.3,1.6,0.7,0.4-6.4,0.5c-6.5,0-10.5,1-10.5,1.5
		c2.7,0.2,7.4,0.4,11.5,1c9.1,1.3,10.8,1.4,9.8,5.3c-5.3,11.5-9.5,11-15.3,9.8c-5.7-1.2-17.9-1.2-28.7-0.5
		c-6.9,2.7-12.2,12.7-17.9,17.1c-0.9,0.4-41.4,18.3-40.8,17.3c-1.5,2.6-6.8,41.9-12.1,55.8c-9.8,25.7-22.2,28.6-19.2,32.1
		c10.3,13.8,25.2,10.6,48.5,14.7c12.7,2.3,20.5,7.6,30.8,11.6c7.7,2,15.3,3.8,22.9,5.8c-0.1,0.5-0.2,1.1-0.2,1.5
		c-10.9,5.4-34.7-4.4-46.1-6.4c-2.1,0-26.3,0.5-36.3,0.8c-9,1.4-21.6,3-31,1.1c-7.7-1.6-30.4-10.9-37.6-5.5c-6,4.4-18,12-9.4,15.6
		c4.8,2.1,9.8,13.6,9,16c0.9-1.3-0.4,3.3-5.5,0.2c-3.2-1.9-23.6-16.1-25.2-19.7c-2.3-5.2-0.7-17.3-6.4-19c1.3,0.3-39.2,5.8-31.6,4.7
		c-16.5,2.5-28-6.1-42.9-3.4c-6.6,1.2-25.1,7.8-30.8,5.3c0.2-1.6,0.5-1.6,1.3-2.6c10.4-4.4,19.7-10.5,32.9-13.2
		c9.4-1.9,21.3,0.7,30.1-1.9c12.8-3.7,16.3-13.3,33.5-13.4c-5.4-20.4-11.6-42-7-64.7c3.4-24.2,7.4-30.8,8.9-45.1
		c-6-9.7-15.7-26.9-28.2-36.3c-0.3,0-1.8,1.3-2.1,1.3c-1.6,2.3-5.7,4.4-6.6,6.4c-2.1,4.4,0.4,12.3-3.4,15c-2.2,0-8.1-3.2-9.8-4.2
		c-1.2-3.7,0.5-3.7,4.9-3.9c-0.1-2.6,0-6.7,2-10.3c-0.8-0.9-1.5-1.8-2.4-2.6c-1.1-1.9,0.9-5.6,1.5-7.9c-0.2-0.2-0.3-0.3-0.5-0.5
		c-1.5,2-3.2,4.1-4.7,6c-1.2,0.3-1.9,0-3.2-0.2c-1.6,2.5-3.1,4.9-3.4,16.9c-0.4,3.2-11.2-2-11.3-3.9c-0.2-2.6,1.5-3.1,5.3-3.7
		c-0.1-5.5,0.1-8.4,1.9-12.1c-0.4-2-0.9-4.6-1.3-6.6c0.4-3.5,2.5-5.2,4.5-8.1c-1-2.2-9.2-7.1-10.8-7.9c-4.4,2.7-2.2,8.3-5.3,9
		c-1.2-0.8-3.8-1.4-5.5-2.1c-3.9,3.9-1.1,15.4-1.9,16.6c-0.8,1.2-13.4,3.5-13.2-0.5c0.4-1.4,2.3-2.6,5-3.7c0.3-1.4-0.9-6.6,1.1-13.4
		c0.4-1.4-1.8-1.2-1.5-2.4c0.4-3.5,2.9-7.9,2.9-7.9c-0.8-0.7-1.2-0.5-2.1-0.8c-1.3-0.3-5.2,4.3-7.4,5.5c-1.4,0.8-2.7,0.1-2.6,0
		c-6.3,4.8-3.1,17-4.5,17.3c-8.8,2.7-13.8-1.4-12.9-3.2c0.9-0.5,2.2-3,5.8-2.6c0.5-4.9,0.3-10.9,3.4-16c0.8-1.2-3.2-2.6-2.6-3.9
		c2.2-5.3,4.5-9,10.3-11.8c-14.5-11.4-12.3-15.5-26.6-27c-7.2,4.9-35.4,10.2-40,4.9c-6.3-7.1-1-23.7,8.7-21.3
		c10.1,2.4,32.4,0,32.4,0s-37.5,1.1-26.6-11.3c4.6-5.3,7.7-8.1,12.9-8.7c10.3-0.9,12.4,1.8,14.6,2.2c2.2,0.4,4.3,0.3,5.4-0.2
		c2.1-1,8.6-2,12.4,8.1c1.5,4.1,5.9,15.4,1.9,20.3c-9.1,3.1-14,3.1-12.6,5c7.7,10.8,17.3,15.4,22.8,19.2
		c3.4-5.6,15.8-15.4,23.5-20.8c-9.3-4.1-10.6-10.4-12.6-16.9c-3.6-11.6,3.6-17.3,6.8-25.2c0.7,0,1-4.5,1.5-4.5
		c1.5,2.2,3.1,4.4,6.8,4.5c1.1-1.2,2.1-2.4,3.2-3.7c2,1.5,0.7,2.6,2.6,4.2c2.5,0.8,7.7,0.3,9.4,1.5c9.1,6.3,11,20.3,6.8,32.1
		c-1.4,4.3-5.4,7.6-6.6,11.6c-1.1,3.8,1.8,10.8,0.5,16c-1.4,6.5-3.5,13.7-4.7,20.5c2.6,1.9,3.6,2.6,6.6,3.7c7.9-5,18-16.9,24.5-21.8
		c-4.4-0.9-12.7-10.6-11.1-21.8c1.1-7.2,1.8-9,5.5-14.3c2.4-3.3,12.6-5.5,18.4-5.3c14.7,0.7,20,23.6,15.3,38.7
		c-2,6.5-4.4,19.2,3.9,20c1-0.7,4.8-2.9,5-3.4c0.2-0.7-1-1.9-1.3-2.1c-0.3-0.3-4.5,2.6-4.5,2.6s-1.2-2.1-1.1-2.4
		c0.1-0.3,1.5-4.3,2.1-4.7c0.3-0.3,5.6-2,6.4-1.3c0.7,0.5,2.3,4.3,2.9,7.4c0.9,4.4-1.8,12.4-9.2,14.3c-4.6,0-11-1.9-13.7-5
		c-1.9-2.1-1.5-1.9-4.2-6.4c-1.4,7.9-7.1,12.3-7.4,20.8c19,9.4,28.3,10.5,36.3,10.8c26.8-8.7,13.9-48.9,32.7-82.2
		c-9,3.6-12.3-8.9-21.3-8.4c-12.3,0.7-18.9-16.8-9.2-19.7c9.7-4.1,35.3-5.3,35.3-5.3s-14.5-3.4-28.4-0.2c-7,1.5,0.3-4.9,1.5-5.8
		c10.6-6.9,17-3.5,35.5-2.7c12.7-2.2,34.1-4.2,40.8,7c3.3,5.5,7.8,7.8-11.1,7.9C567.2,163.6,583,167.5,587,166.2z"/>
	<g display="none">
		
			<text transform="matrix(1 0 0 1 175.3062 603.9122)" display="inline" fill="#FFFFFF" font-family="'ArialMT'" font-size="109.6914">S</text>
		
			<text transform="matrix(1 0 0 1 175.3062 603.9122)" display="inline" fill="#FFFFFF" stroke="#423E3B" stroke-miterlimit="10" font-family="'ArialMT'" font-size="109.6914">S</text>
		
			<text transform="matrix(0.15 0 0 1 217.8651 623.8555)" display="inline" fill="#FFFFFF" font-family="'ArialMT'" font-size="99.7194"> </text>
		
			<text transform="matrix(0.15 0 0 1 217.8651 623.8555)" display="inline" fill="#FFFFFF" stroke="#423E3B" stroke-miterlimit="10" font-family="'ArialMT'" font-size="99.7194"> </text>
		
			<text transform="matrix(1 0 0 1 222.3521 623.8555)" display="inline" fill="#FFFFFF" font-family="'ArialMT'" font-size="99.7194">u</text>
		
			<text transform="matrix(1 0 0 1 222.3521 623.8555)" display="inline" fill="#FFFFFF" stroke="#423E3B" stroke-miterlimit="10" font-family="'ArialMT'" font-size="99.7194">u</text>
		
			<text transform="matrix(0.15 0 0 1 264.532 603.912)" display="inline" fill="#FFFFFF" font-family="'ArialMT'" font-size="99.7194"> </text>
		
			<text transform="matrix(0.15 0 0 1 264.532 603.912)" display="inline" fill="#FFFFFF" stroke="#423E3B" stroke-miterlimit="10" font-family="'ArialMT'" font-size="99.7194"> </text>
		
			<text transform="matrix(1 0 0 1 269.019 603.9122)" display="inline" fill="#FFFFFF" font-family="'ArialMT'" font-size="99.7194">r</text>
		
			<text transform="matrix(1 0 0 1 269.019 603.9122)" display="inline" fill="#FFFFFF" stroke="#423E3B" stroke-miterlimit="10" font-family="'ArialMT'" font-size="99.7194">r</text>
		
			<text transform="matrix(0.5 0 0 1 302.125 603.9122)" display="inline" fill="#FFFFFF" font-family="'ArialMT'" font-size="99.7194">   </text>
		
			<text transform="matrix(0.5 0 0 1 302.125 603.9122)" display="inline" fill="#FFFFFF" stroke="#423E3B" stroke-miterlimit="10" font-family="'ArialMT'" font-size="99.7194">   </text>
		
			<text transform="matrix(1.3 0 0 1 346.9979 618.8701)" display="inline" fill="#FFFFFF" font-family="'ArialMT'" font-size="89.7475">Un </text>
		
			<text transform="matrix(1.3 0 0 1 346.9979 618.8701)" display="inline" fill="#FFFFFF" stroke="#423E3B" stroke-miterlimit="10" font-family="'ArialMT'" font-size="89.7475">Un </text>
		
			<text transform="matrix(1 0 0 1 472.1812 633.8271)" display="inline" fill="#FFFFFF" font-family="'ArialMT'" font-size="119.6633" letter-spacing="5">B</text>
		
			<text transform="matrix(1 0 0 1 472.1812 633.8271)" display="inline" fill="#FFFFFF" stroke="#423E3B" stroke-miterlimit="10" font-family="'ArialMT'" font-size="119.6633" letter-spacing="5">B</text>
		
			<text transform="matrix(1 0 0 1 569.957 623.8555)" display="inline" fill="#FFFFFF" font-family="'ArialMT'" font-size="99.7194" letter-spacing="4">a</text>
		
			<text transform="matrix(1 0 0 1 569.957 623.8555)" display="inline" fill="#FFFFFF" stroke="#423E3B" stroke-miterlimit="10" font-family="'ArialMT'" font-size="99.7194" letter-spacing="4">a</text>
		
			<text transform="matrix(1 0 0 1 630.1104 614.9727)" display="inline" fill="#FFFFFF" font-family="'ArialMT'" font-size="99.7194" letter-spacing="4">o</text>
		
			<text transform="matrix(1 0 0 1 630.1104 614.9727)" display="inline" fill="#FFFFFF" stroke="#423E3B" stroke-miterlimit="10" font-family="'ArialMT'" font-size="99.7194" letter-spacing="4">o</text>
		
			<text transform="matrix(1 0 0 1 684.5557 618.8701)" display="inline" fill="#FFFFFF" font-family="'ArialMT'" font-size="119.6633" letter-spacing="5">b</text>
		
			<text transform="matrix(1 0 0 1 684.5557 618.8701)" display="inline" fill="#FFFFFF" stroke="#423E3B" stroke-miterlimit="10" font-family="'ArialMT'" font-size="119.6633" letter-spacing="5">b</text>
		
			<text transform="matrix(1 0 0 1 732.54 623.8555)" display="inline" fill="#FFFFFF" font-family="'ArialMT'" font-size="99.7194" letter-spacing="4">a</text>
		
			<text transform="matrix(1 0 0 1 732.54 623.8555)" display="inline" fill="#FFFFFF" stroke="#423E3B" stroke-miterlimit="10" font-family="'ArialMT'" font-size="99.7194" letter-spacing="4">a</text>
		
			<text transform="matrix(1 0 0 1 792.6934 643.7998)" display="inline" fill="#FFFFFF" font-family="'ArialMT'" font-size="109.6914" letter-spacing="4">b</text>
		
			<text transform="matrix(1 0 0 1 792.6934 643.7998)" display="inline" fill="#FFFFFF" stroke="#423E3B" stroke-miterlimit="10" font-family="'ArialMT'" font-size="109.6914" letter-spacing="4">b</text>
	</g>
	
		<text transform="matrix(1 0 0 1 272.1943 709.4902)" display="none" fill="#FFFFFF" enable-background="new    " font-family="'ArialMT'" font-size="52.8764" letter-spacing="2">animation workshop</text>
</g>
</svg>
